<svg id="图层_1" data-name="图层 1" xmlns="http://www.w3.org/2000/svg" viewBox="0 0 2813 759"><defs><style>.cls-1{fill:#00b211;}.cls-2{fill:#fe8b00;}.cls-3{fill:#7ccf7c;}.cls-4{fill:#bce4bc;}.cls-5{fill:#56ca58;}.cls-6{fill:#fce0c8;}.cls-7{fill:#fe8a00;}</style></defs><path class="cls-1" d="M36,758c-1.13-1.92.71-2.25,1.67-2.88q51.57-33.95,103.17-67.85,65.07-42.9,130-85.93t130-86q43.19-28.62,86.25-57.39c4.71-3.15,8.46-3.59,13.48-.21,30.6,20.58,61.4,40.86,92.16,61.2Q632.3,545,671.82,571q40.51,26.79,81,53.62Q795.66,652.9,838.6,681l13.33,8.74c.83.55,2,1.1,1.77,2.16-.31,1.57-1.78,1.1-2.89,1.09-41.64,0-83.28-.14-124.92,0-7.72,0-13.66-3.51-19.65-7.44L561.33,590.42c-19.86-13-39.76-26-59.52-39.2-4.92-3.28-9.17-3.45-14.16-.14Q442,581.34,396.09,611.32q-46,30.15-92.17,60.16-42.53,27.82-85,55.76c-14,9.2-28,18.46-42.15,27.48-2.95,1.88-6.51,2.8-9.78,4.16h-2c-4.52-1.13-9.12-.22-13.67-.52q-55,0-109.93,0C39.64,758.34,37.78,758.73,36,758Z"/><path class="cls-2" d="M.11,494c1.69-1,2-3,2.93-4.47,4.05-6.62,9.84-10.15,17.64-10.4q49.91-1.56,99.81-3.19c9.11-.3,17.09,2.24,21.81,10.35,8.36,14.36-.24,29.68-17,30.61-15.62.87-31.26,1.45-46.89,2.11-17,.72-33.93.8-50.89,1.32-12.69.39-22-3.65-27.44-15.33Z"/><path class="cls-3" d="M36,758l116,.11c.37.15.51.32.41.51s-.22.31-.33.31H36.1A1.09,1.09,0,0,1,36,758Z"/><path class="cls-4" d="M1349.58,758c0,.28,0,.56-.06.84h-23a8.08,8.08,0,0,0,0-.85,4,4,0,0,1,3.46-1.56C1336.5,756.83,1343.27,754.58,1349.58,758Z"/><path class="cls-5" d="M152.05,758.88c0-.27-.05-.55-.08-.82,4.36.18,8.83-1.3,13.07.82Z"/><path class="cls-6" d="M490.86,1a8.44,8.44,0,0,1,0-.87h7c0,.32,0,.63,0,.94C495.54,2.94,493.19,3,490.86,1Z"/><path class="cls-1" d="M2047.94,269H1820.59c4.58-12.95,9-25.45,13.42-37.95,10-28.32,20.21-56.6,30-85,2.54-7.35,3.89-15.11,6-22.63,3.9-14.31,11-19.89,25.72-18.72,30.11,2.42,60.24,1.3,90.36,1.36q151.41.27,302.82.1,123.42,0,246.85.1c8.17,0,8.2,0,5.47,7.77q-23,65.28-46.11,130.56c-7.57,21.28-11.18,23.63-33.88,23.68-33.31.08-66.61.31-99.92.32-17.48,0-35-.3-52.44-.52-10-.13-13.53,2.2-16.75,11.44Q2214,503.59,2135.94,727.7c-5,14.29-9.45,17.09-26.84,17q-110.67-.18-221.35-.32c-1.16,0-2.34-.08-3.49,0-3,.27-3.25-.84-2.3-3.48,5-13.9,9.83-27.87,14.73-41.81q75.12-213.3,150.22-426.6C2047.24,271.63,2047.46,270.66,2047.94,269Z"/><path class="cls-1" d="M1349.58,758h-23.1c-35.67-1-71.07-4.3-105.73-13.2-30.42-7.82-58.93-19.8-82.86-40.78-28.27-24.8-39-56.55-34.62-93.27,4.38-36.51,16.65-71.08,28.62-105.63,5.93-17.1,12.42-34,18.7-51,2.44-6.58,4.13-7.74,11-7.74q102.69,0,205.39-.12c4.54,0,4.25,1.38,3.21,4.76-8.1,26.34-17,52.46-23.93,79.14a73.19,73.19,0,0,0-2,28.7c2.37,17.19,12.65,28.33,29.88,30.6,11.38,1.5,22.9,1.15,34.14-2.16,19.6-5.77,30.89-20,38.28-37.9,12.93-31.33,24-63.36,34.65-95.52,36.34-109.74,74.92-218.71,112.31-328.08,1.4-4.09,2.75-8.2,4.21-12.26,2.3-6.42,4.11-7.69,11.07-7.68q65,.06,129.93.16,41,0,82,0h6c-4,11.72-8,23-11.84,34.23Q1755.59,312,1696.19,483.55c-11.23,32.29-21.43,65-35.36,96.29-38.37,86.22-104.36,139.65-195.25,162.94C1427.56,752.52,1388.8,757.13,1349.58,758Z"/><path class="cls-2" d="M498.05,205.9c50.29.81,101.78,11,150,35.17a290.57,290.57,0,0,1,81.49,60.81A268.67,268.67,0,0,1,768.91,355a278.34,278.34,0,0,1,26.91,68.77c5.22,20.78,7.22,42,8.34,63.16.71,13.53-1.93,27.15-4,40.65a213.57,213.57,0,0,1-11,41.25c-1.71,4.69-4,4.41-7.45,2.39q-26.31-15.26-52.67-30.39-43.41-25-86.81-50.08L532.66,427.39c-10.5-6.06-21.09-12-31.48-18.2-4.74-2.84-8.8-2.49-13.47.24Q436,439.54,384.18,469.34q-48.8,28.16-97.64,56.21-39.09,22.53-78.14,45.11c-5.64,3.25-6.16,3.1-8.5-2.89-6.56-16.78-10.43-34.23-12.84-52.06-3.35-24.77-2.3-49.33,1.7-74A257.72,257.72,0,0,1,211.93,369c13.44-27.42,31.58-51.31,53.13-72.84A296.28,296.28,0,0,1,390.8,220.93C424.67,210.72,459.38,206.18,498.05,205.9Z"/><path class="cls-1" d="M2535.69,528.24c-11.33-8.52-24.29-13-38.28-14.24-21.72-2-43.52-1.69-65.31-1.89h-54.43c-9.61,0-11.45,1.42-14.33,10.36-8.25,25.6-16.38,51.24-24.89,76.76-15.55,46.63-31.35,93.17-47,139.76-1.83,5.44-1.83,5.41,4.1,5.45,15.82.09,31.63,0,47.44.41,5.61.14,8.42-2,10.27-7.17,7.54-21.1,15.46-42.07,23.05-63.16,1.88-5.23,4.91-7.81,10.67-7.67a476.15,476.15,0,0,0,62.26-3.06c19.29-2.1,37.4-7.8,53.43-19,28.16-19.65,42.13-47.58,46.24-81C2550.58,549.85,2547.66,537.23,2535.69,528.24Zm-52.29,49.32c-3.23,23.93-15.85,38.6-37.35,43-9.69,2-19.57,1.13-29.38,1.22-6.5,0-13-.08-19.49,0-2.61.05-3.62-.41-2.69-3.34q8.84-27.78,17.37-55.65c1.1-3.57,3.29-5.22,6.88-5.25,16.15-.14,32.3-.63,48.43-.29C2478.77,557.5,2485,565.83,2483.4,577.56Z"/><path class="cls-1" d="M2811.26,511.78c-8.13,12.27-15.72,23.91-23.49,35.44C2746,609.15,2704.09,671,2662.57,733.05c-6.15,9.2-13.54,12.76-24.27,11.73-13.43-1.29-26.92-.49-40.38-.15-1.33,0-2.66.11-4,.11-7.66,0-9-1.06-9.45-8.83-1.24-19.76-2.28-39.52-3.49-59.28q-3.22-52.57-6.55-105.13c-1.11-17.6-2.36-35.2-3.46-52.8-.38-6.19.41-6.91,6.66-6.92h51.47c5.81,0,6.7.91,6.87,6.56,1.28,42.91,2.44,85.83,3.93,128.73.39,11.12,1.8,22.2,2.86,34.73,5.43-8.32,10.15-15.45,14.77-22.65q44.88-69.9,90.71-139.18c3.86-5.86,8-8.67,15.37-8.38C2779.19,512.2,2794.81,511.78,2811.26,511.78Z"/><path class="cls-2" d="M490.86,1l7.05.07c11.65,3.5,15.91,9.27,16,21.42q.51,62.44,1.08,124.89c.07,10.32-4.06,16.11-13.31,19.26s-18.62.47-24.25-6.81a16,16,0,0,1-3.52-10.14c.07-43.15,0-86.3.11-129.45C474.06,10.44,479.94,3.91,490.86,1Z"/><path class="cls-7" d="M170.47,326.25c-8.29,0-14.72-4.95-21.52-8.56-30.81-16.32-61.43-33-92.17-49.43-12.65-6.76-15.41-18.08-9-30.24,4.8-9.15,19.5-12.21,29.65-6.73,32.73,17.66,65.52,35.2,98.24,52.88,8.26,4.46,15.74,9.7,15.43,20.64C190.74,316.55,181.28,326.38,170.47,326.25Z"/><path class="cls-7" d="M799.64,303.19c-1.16-9.24,5.76-14,13-18,30.26-16.62,60.68-32.94,91-49.38,2.62-1.42,5.23-2.89,7.8-4.41,8.41-5,16.81-3.91,24.39,1.19,11.92,8,11.21,27.3-1.52,34.34q-51.64,28.53-103.81,56.11C814.59,331.47,799.91,322,799.64,303.19Z"/><path class="cls-7" d="M687.73,213c-7.65-.28-14.41-2.4-18.81-9.27-5.42-8.46-3.25-16.67,1.39-24.43,13.11-21.93,26.48-43.7,39.69-65.57,6.43-10.65,12.67-21.41,19.07-32.08,5.48-9.15,17.33-12.39,27.16-7.54,9.09,4.49,13.29,15.62,10,25.5-2.11,6.26-6.06,11.44-9.36,17-12.78,21.37-25.93,42.51-38.9,63.76-4.58,7.5-8.9,15.16-13.59,22.59C700.55,208.93,695.54,213.35,687.73,213Z"/><path class="cls-7" d="M293.38,212.94c-4.57.1-10.19-2.54-13.8-8.33-8.49-13.64-16.64-27.48-25-41.18-6.76-11-13.78-21.9-20.46-33-5.72-9.5-12.11-18.62-16.94-28.65a19.49,19.49,0,0,1,4.18-23.33c7.36-7,15.75-8.46,24.18-4.17,3.58,1.82,5.92,4.87,7.92,8.11Q277.28,121.14,301,160c4.74,7.77,9.64,15.5,13.6,23.66C321.61,198.16,311.91,212.85,293.38,212.94Z"/><path class="cls-2" d="M915.49,477.38c17.46.57,34.93,1.18,52.4,1.69,11.7.35,20.65,8,20.78,17.89.17,13.67-7.58,22.53-20.5,23-18.3.65-36.6-.12-54.89-.9-17.13-.74-34.26-1.41-51.39-2.19-11.67-.54-19.49-8.92-19.26-20.45.24-12.13,8.59-20.49,20.44-20.49h52.42Z"/></svg>